<svg xmlns="http://www.w3.org/2000/svg" viewBox="0 0 169.38 25.29"><defs><style>.a{fill:#6ecff6;}.b{fill:#9bdaf0;}.c{fill:#71d0f1;}.d{fill:#81d3f1;}</style></defs><title>BIG RIVER POKER MISSIPPI</title><path d="M64.21,24.93h1.1a0.75,0.75,0,0,1,.54.17,0.64,0.64,0,0,1,.18.49,0.66,0.66,0,0,1-.2.51,0.84,0.84,0,0,1-.6.18H64.87v0.79H64.21V24.93Zm0.66,0.91H65a0.42,0.42,0,0,0,.27-0.07,0.21,0.21,0,0,0,.08-0.17,0.24,0.24,0,0,0-.07-0.17,0.35,0.35,0,0,0-.25-0.07H64.87v0.48Z" transform="translate(-4.12 -1.82)"/><path d="M66.29,26a1,1,0,0,1,1.11-1.11,1.12,1.12,0,0,1,.82.29,1.08,1.08,0,0,1,.29.8,1.32,1.32,0,0,1-.13.62A0.9,0.9,0,0,1,68,27a1.21,1.21,0,0,1-.6.13,1.37,1.37,0,0,1-.6-0.12,0.9,0.9,0,0,1-.38-0.36A1.21,1.21,0,0,1,66.29,26ZM67,26a0.72,0.72,0,0,0,.12.47,0.46,0.46,0,0,0,.66,0,0.79,0.79,0,0,0,.12-0.5,0.66,0.66,0,0,0-.12-0.44,0.42,0.42,0,0,0-.33-0.14,0.4,0.4,0,0,0-.32.14A0.72,0.72,0,0,0,67,26Z" transform="translate(-4.12 -1.82)"/><path d="M68.59,24.93h0.63l0.23,1.2,0.33-1.2H70.4l0.33,1.2L71,24.93h0.63l-0.47,2.14H70.47l-0.38-1.35-0.37,1.35H69.07Z" transform="translate(-4.12 -1.82)"/><path d="M71.8,24.93h1.77v0.46H72.46v0.34h1v0.44h-1v0.42h1.14v0.48H71.8V24.93Z" transform="translate(-4.12 -1.82)"/><path d="M74,27.07V24.93h1.1a1.61,1.61,0,0,1,.47.05,0.5,0.5,0,0,1,.26.2,0.59,0.59,0,0,1,.1.35,0.57,0.57,0,0,1-.28.52,0.8,0.8,0,0,1-.23.08l0.17,0.08,0.11,0.11,0.09,0.13,0.32,0.62H75.33L75,26.42a0.5,0.5,0,0,0-.12-0.16,0.28,0.28,0,0,0-.16,0H74.64v0.87H74Zm0.66-1.27h0.28l0.17,0a0.18,0.18,0,0,0,.11-0.07,0.22,0.22,0,0,0,0-.28,0.4,0.4,0,0,0-.25-0.06H74.64V25.8Z" transform="translate(-4.12 -1.82)"/><path d="M76.29,24.93h1.77v0.46H76.95v0.34h1v0.44h-1v0.42h1.14v0.48h-1.8V24.93Z" transform="translate(-4.12 -1.82)"/><path d="M78.46,24.93h1a1.18,1.18,0,0,1,.47.08,0.77,0.77,0,0,1,.3.23,0.93,0.93,0,0,1,.17.34,1.58,1.58,0,0,1,.05.41,1.44,1.44,0,0,1-.08.53,0.88,0.88,0,0,1-.22.32,0.71,0.71,0,0,1-.3.17,1.53,1.53,0,0,1-.39.06h-1V24.93Zm0.66,0.48v1.17h0.16a0.68,0.68,0,0,0,.29,0,0.31,0.31,0,0,0,.14-0.16,1,1,0,0,0,0-.37,0.72,0.72,0,0,0-.11-0.47,0.47,0.47,0,0,0-.37-0.13H79.12Z" transform="translate(-4.12 -1.82)"/><path d="M81.77,24.93H83a0.67,0.67,0,0,1,.48.15,0.5,0.5,0,0,1,.17.38,0.48,0.48,0,0,1-.12.33,0.53,0.53,0,0,1-.23.14,0.6,0.6,0,0,1,.34.19,0.52,0.52,0,0,1,.11.34,0.59,0.59,0,0,1-.08.3,0.57,0.57,0,0,1-.21.21,0.7,0.7,0,0,1-.25.07l-0.3,0H81.77V24.93Zm0.67,0.84h0.29a0.33,0.33,0,0,0,.22-0.05A0.19,0.19,0,0,0,83,25.57a0.18,0.18,0,0,0-.06-0.15,0.32,0.32,0,0,0-.21-0.05H82.44v0.41Zm0,0.84h0.34A0.37,0.37,0,0,0,83,26.55a0.2,0.2,0,0,0,.07-0.16A0.19,0.19,0,0,0,83,26.24a0.39,0.39,0,0,0-.24-0.06H82.44v0.43Z" transform="translate(-4.12 -1.82)"/><path d="M83.88,24.93h0.73L85,25.66l0.43-.72h0.73l-0.83,1.24v0.9H84.71v-0.9Z" transform="translate(-4.12 -1.82)"/><path d="M87.43,27.07V24.93h1.1A1.61,1.61,0,0,1,89,25a0.5,0.5,0,0,1,.26.2,0.59,0.59,0,0,1,.1.35,0.57,0.57,0,0,1-.28.52,0.8,0.8,0,0,1-.23.08L89,26.21l0.11,0.11,0.09,0.13,0.32,0.62H88.79l-0.35-.65a0.5,0.5,0,0,0-.12-0.16,0.28,0.28,0,0,0-.16,0H88.09v0.87H87.43Zm0.66-1.27h0.28l0.17,0a0.18,0.18,0,0,0,.11-0.07,0.22,0.22,0,0,0,0-.28,0.4,0.4,0,0,0-.25-0.06H88.09V25.8Z" transform="translate(-4.12 -1.82)"/><path d="M89.74,24.93h1.77v0.46H90.41v0.34h1v0.44h-1v0.42h1.14v0.48h-1.8V24.93Z" transform="translate(-4.12 -1.82)"/><path d="M93.22,26.72H92.47l-0.1.35H91.69l0.8-2.14h0.72L94,27.07H93.33Zm-0.14-.46-0.24-.77-0.23.77h0.47Z" transform="translate(-4.12 -1.82)"/><path d="M94.23,24.93h0.66v1.61h1v0.53H94.23V24.93Z" transform="translate(-4.12 -1.82)"/><path d="M96.25,24.93h0.66v2.14H96.25V24.93Z" transform="translate(-4.12 -1.82)"/><path d="M97.33,24.93h1.87v0.43L98,26.61h1.24v0.46h-2V26.63l1.19-1.24H97.33V24.93Z" transform="translate(-4.12 -1.82)"/><path d="M99.55,24.93h1.77v0.46h-1.11v0.34h1v0.44h-1v0.42h1.14v0.48h-1.8V24.93Z" transform="translate(-4.12 -1.82)"/><path d="M103.78,26.3V25.85h1v0.91a2.12,2.12,0,0,1-.52.27,1.78,1.78,0,0,1-.54.07,1.29,1.29,0,0,1-.62-0.13,0.88,0.88,0,0,1-.37-0.39,1.28,1.28,0,0,1-.13-0.59,1.23,1.23,0,0,1,.14-0.61,0.93,0.93,0,0,1,.42-0.39,1.37,1.37,0,0,1,.58-0.1,1.65,1.65,0,0,1,.53.06,0.7,0.7,0,0,1,.29.2,0.9,0.9,0,0,1,.18.34l-0.64.11a0.34,0.34,0,0,0-.13-0.19,0.42,0.42,0,0,0-.24-0.06,0.43,0.43,0,0,0-.35.15,0.73,0.73,0,0,0-.13.48,0.75,0.75,0,0,0,.13.5,0.46,0.46,0,0,0,.36.15,0.69,0.69,0,0,0,.21,0,1.11,1.11,0,0,0,.23-0.11V26.3h-0.44Z" transform="translate(-4.12 -1.82)"/><path d="M106.51,26.72h-0.75l-0.1.35H105l0.8-2.14h0.72l0.8,2.14h-0.69Zm-0.14-.46-0.24-.77-0.23.77h0.47Z" transform="translate(-4.12 -1.82)"/><path d="M107.51,24.93h0.87l0.34,1.3,0.33-1.3h0.87v2.14h-0.54V25.44L109,27.07h-0.49l-0.42-1.63v1.63h-0.54V24.93Z" transform="translate(-4.12 -1.82)"/><path d="M110.37,24.93H111v2.14h-0.66V24.93Z" transform="translate(-4.12 -1.82)"/><path d="M111.51,24.93h0.62l0.81,1.18V24.93h0.62v2.14h-0.62l-0.8-1.18v1.18h-0.62V24.93Z" transform="translate(-4.12 -1.82)"/><path d="M115.07,26.3V25.85h1v0.91a2.12,2.12,0,0,1-.52.27,1.78,1.78,0,0,1-.54.07,1.29,1.29,0,0,1-.62-0.13,0.88,0.88,0,0,1-.37-0.39,1.28,1.28,0,0,1-.13-0.59,1.23,1.23,0,0,1,.14-0.61,0.93,0.93,0,0,1,.42-0.39,1.37,1.37,0,0,1,.58-0.1,1.65,1.65,0,0,1,.53.06,0.7,0.7,0,0,1,.29.2,0.9,0.9,0,0,1,.18.34l-0.64.11a0.34,0.34,0,0,0-.13-0.19,0.42,0.42,0,0,0-.24-0.06,0.43,0.43,0,0,0-.35.15,0.73,0.73,0,0,0-.13.48,0.75,0.75,0,0,0,.13.5,0.46,0.46,0,0,0,.36.15,0.69,0.69,0,0,0,.21,0,1.11,1.11,0,0,0,.23-0.11V26.3h-0.44Z" transform="translate(-4.12 -1.82)"/><path class="a" d="M63.82,24.47h1.1a0.75,0.75,0,0,1,.54.17,0.64,0.64,0,0,1,.18.49,0.66,0.66,0,0,1-.2.51,0.84,0.84,0,0,1-.6.18H64.48v0.79H63.82V24.47Zm0.66,0.91h0.16a0.42,0.42,0,0,0,.27-0.07A0.21,0.21,0,0,0,65,25.14,0.24,0.24,0,0,0,64.92,25a0.35,0.35,0,0,0-.25-0.07H64.48v0.48Z" transform="translate(-4.12 -1.82)"/><path class="a" d="M65.89,25.54A1,1,0,0,1,67,24.43a1.12,1.12,0,0,1,.82.29,1.08,1.08,0,0,1,.29.8,1.32,1.32,0,0,1-.13.62,0.9,0.9,0,0,1-.36.37,1.21,1.21,0,0,1-.6.13,1.37,1.37,0,0,1-.6-0.12A0.9,0.9,0,0,1,66,26.16,1.21,1.21,0,0,1,65.89,25.54Zm0.66,0a0.72,0.72,0,0,0,.12.47,0.46,0.46,0,0,0,.66,0,0.79,0.79,0,0,0,.12-0.5,0.66,0.66,0,0,0-.12-0.44A0.42,0.42,0,0,0,67,24.93a0.4,0.4,0,0,0-.32.14A0.72,0.72,0,0,0,66.56,25.54Z" transform="translate(-4.12 -1.82)"/><path class="a" d="M68.2,24.47h0.63l0.23,1.2,0.33-1.2H70l0.33,1.2,0.23-1.2h0.63l-0.47,2.14H70.07L69.7,25.26l-0.37,1.35H68.67Z" transform="translate(-4.12 -1.82)"/><path class="a" d="M71.41,24.47h1.77v0.46H72.07v0.34h1V25.7h-1v0.42h1.14v0.48h-1.8V24.47Z" transform="translate(-4.12 -1.82)"/><path class="a" d="M73.58,26.61V24.47h1.1a1.61,1.61,0,0,1,.47.05,0.5,0.5,0,0,1,.26.2,0.59,0.59,0,0,1,.1.35,0.57,0.57,0,0,1-.28.52,0.8,0.8,0,0,1-.23.08l0.17,0.08,0.11,0.11L75.36,26l0.32,0.62H74.93L74.58,26a0.5,0.5,0,0,0-.12-0.16,0.28,0.28,0,0,0-.16,0H74.24v0.87H73.58Zm0.66-1.27h0.28l0.17,0a0.18,0.18,0,0,0,.11-0.07,0.22,0.22,0,0,0,0-.28,0.4,0.4,0,0,0-.25-0.06H74.24v0.44Z" transform="translate(-4.12 -1.82)"/><path class="a" d="M75.89,24.47h1.77v0.46H76.55v0.34h1V25.7h-1v0.42H77.7v0.48h-1.8V24.47Z" transform="translate(-4.12 -1.82)"/><path class="a" d="M78.06,24.47h1a1.18,1.18,0,0,1,.47.08,0.77,0.77,0,0,1,.3.23,0.93,0.93,0,0,1,.17.34,1.58,1.58,0,0,1,.05.41,1.44,1.44,0,0,1-.08.53,0.88,0.88,0,0,1-.22.32,0.71,0.71,0,0,1-.3.17,1.53,1.53,0,0,1-.39.06h-1V24.47ZM78.72,25v1.17h0.16a0.68,0.68,0,0,0,.29,0,0.31,0.31,0,0,0,.14-0.16,1,1,0,0,0,0-.37,0.72,0.72,0,0,0-.11-0.47A0.47,0.47,0,0,0,78.89,25H78.72Z" transform="translate(-4.12 -1.82)"/><path class="a" d="M81.38,24.47h1.24a0.67,0.67,0,0,1,.48.15,0.5,0.5,0,0,1,.17.38,0.48,0.48,0,0,1-.12.33,0.53,0.53,0,0,1-.23.14,0.6,0.6,0,0,1,.34.19,0.52,0.52,0,0,1,.11.34,0.59,0.59,0,0,1-.08.3,0.57,0.57,0,0,1-.21.21,0.7,0.7,0,0,1-.25.07l-0.3,0H81.38V24.47ZM82,25.31h0.29a0.33,0.33,0,0,0,.22-0.05,0.19,0.19,0,0,0,.06-0.15A0.18,0.18,0,0,0,82.55,25a0.32,0.32,0,0,0-.21-0.05H82v0.41Zm0,0.84h0.34a0.37,0.37,0,0,0,.24-0.06,0.2,0.2,0,0,0,.07-0.16,0.19,0.19,0,0,0-.07-0.15,0.39,0.39,0,0,0-.24-0.06H82v0.43Z" transform="translate(-4.12 -1.82)"/><path class="a" d="M83.48,24.47h0.73l0.43,0.72,0.43-.72h0.73L85,25.71v0.9H84.32v-0.9Z" transform="translate(-4.12 -1.82)"/><path class="a" d="M87,26.61V24.47h1.1a1.61,1.61,0,0,1,.47.05,0.5,0.5,0,0,1,.26.2,0.59,0.59,0,0,1,.1.35,0.57,0.57,0,0,1-.28.52,0.8,0.8,0,0,1-.23.08l0.17,0.08,0.11,0.11L88.82,26l0.32,0.62H88.39L88,26a0.5,0.5,0,0,0-.12-0.16,0.28,0.28,0,0,0-.16,0H87.7v0.87H87Zm0.66-1.27H88l0.17,0a0.18,0.18,0,0,0,.11-0.07,0.22,0.22,0,0,0,0-.28A0.4,0.4,0,0,0,88,24.9H87.7v0.44Z" transform="translate(-4.12 -1.82)"/><path class="a" d="M89.35,24.47h1.77v0.46H90v0.34h1V25.7H90v0.42h1.14v0.48h-1.8V24.47Z" transform="translate(-4.12 -1.82)"/><path class="a" d="M92.83,26.25H92.07l-0.1.35H91.29l0.8-2.14h0.72l0.8,2.14H92.93Zm-0.14-.46L92.45,25l-0.23.77h0.47Z" transform="translate(-4.12 -1.82)"/><path class="a" d="M93.84,24.47H94.5v1.61h1v0.53H93.84V24.47Z" transform="translate(-4.12 -1.82)"/><path class="a" d="M95.86,24.47h0.66v2.14H95.86V24.47Z" transform="translate(-4.12 -1.82)"/><path class="a" d="M96.94,24.47h1.87V24.9l-1.2,1.25h1.24v0.46h-2V26.16L98,24.92H96.94V24.47Z" transform="translate(-4.12 -1.82)"/><path class="a" d="M99.15,24.47h1.77v0.46H99.81v0.34h1V25.7h-1v0.42H101v0.48h-1.8V24.47Z" transform="translate(-4.12 -1.82)"/><path class="a" d="M103.39,25.83V25.39h1V26.3a2.12,2.12,0,0,1-.52.27,1.78,1.78,0,0,1-.54.07,1.29,1.29,0,0,1-.62-0.13,0.88,0.88,0,0,1-.37-0.39,1.28,1.28,0,0,1-.13-0.59,1.23,1.23,0,0,1,.14-0.61,0.93,0.93,0,0,1,.42-0.39,1.37,1.37,0,0,1,.58-0.1,1.65,1.65,0,0,1,.53.06,0.7,0.7,0,0,1,.29.2,0.9,0.9,0,0,1,.18.34l-0.64.11a0.34,0.34,0,0,0-.13-0.19,0.42,0.42,0,0,0-.24-0.06,0.43,0.43,0,0,0-.35.15,0.73,0.73,0,0,0-.13.48,0.75,0.75,0,0,0,.13.5,0.46,0.46,0,0,0,.36.15,0.69,0.69,0,0,0,.21,0,1.11,1.11,0,0,0,.23-0.11v-0.2h-0.44Z" transform="translate(-4.12 -1.82)"/><path class="a" d="M106.12,26.25h-0.75l-0.1.35h-0.68l0.8-2.14h0.72l0.8,2.14h-0.69ZM106,25.79L105.74,25l-0.23.77H106Z" transform="translate(-4.12 -1.82)"/><path class="a" d="M107.12,24.47H108l0.34,1.3,0.33-1.3h0.87v2.14H109V25l-0.42,1.63h-0.49L107.66,25v1.63h-0.54V24.47Z" transform="translate(-4.12 -1.82)"/><path class="a" d="M110,24.47h0.66v2.14H110V24.47Z" transform="translate(-4.12 -1.82)"/><path class="a" d="M111.12,24.47h0.62l0.81,1.18V24.47h0.62v2.14h-0.62l-0.8-1.18v1.18h-0.62V24.47Z" transform="translate(-4.12 -1.82)"/><path class="a" d="M114.68,25.83V25.39h1V26.3a2.12,2.12,0,0,1-.52.27,1.78,1.78,0,0,1-.54.07,1.29,1.29,0,0,1-.62-0.13,0.88,0.88,0,0,1-.37-0.39,1.28,1.28,0,0,1-.13-0.59,1.23,1.23,0,0,1,.14-0.61,0.93,0.93,0,0,1,.42-0.39,1.37,1.37,0,0,1,.58-0.1,1.65,1.65,0,0,1,.53.06,0.7,0.7,0,0,1,.29.2,0.9,0.9,0,0,1,.18.34l-0.64.11A0.34,0.34,0,0,0,114.9,25a0.42,0.42,0,0,0-.24-0.06,0.43,0.43,0,0,0-.35.15,0.73,0.73,0,0,0-.13.48,0.75,0.75,0,0,0,.13.5,0.46,0.46,0,0,0,.36.15,0.69,0.69,0,0,0,.21,0,1.11,1.11,0,0,0,.23-0.11v-0.2h-0.44Z" transform="translate(-4.12 -1.82)"/><path d="M5.45,3h6.29a3.43,3.43,0,0,1,2.42.78A2.52,2.52,0,0,1,15,5.71a2.43,2.43,0,0,1-.6,1.65,2.68,2.68,0,0,1-1.17.73,3,3,0,0,1,1.73,1,2.66,2.66,0,0,1,.55,1.73,3,3,0,0,1-.39,1.52A2.9,2.9,0,0,1,14,13.38a3.55,3.55,0,0,1-1.28.36,14.66,14.66,0,0,1-1.51.15H5.45V3ZM8.85,7.27h1.46A1.68,1.68,0,0,0,11.4,7a1,1,0,0,0,.31-0.78,0.93,0.93,0,0,0-.31-0.74,1.65,1.65,0,0,0-1.07-.27H8.85V7.27Zm0,4.27h1.71a1.88,1.88,0,0,0,1.22-.31,1,1,0,0,0,.36-0.83,1,1,0,0,0-.35-0.78,2,2,0,0,0-1.24-.29H8.85v2.2Z" transform="translate(-4.12 -1.82)"/><path d="M17.4,3h3.37V13.88H17.4V3Z" transform="translate(-4.12 -1.82)"/><path d="M28.65,9.94V7.68h5.19v4.64a10.65,10.65,0,0,1-2.64,1.38,9,9,0,0,1-2.72.37,6.61,6.61,0,0,1-3.16-.66,4.52,4.52,0,0,1-1.89-2,6.46,6.46,0,0,1-.67-3,6.26,6.26,0,0,1,.73-3.1,4.76,4.76,0,0,1,2.15-2,7,7,0,0,1,3-.53,8.36,8.36,0,0,1,2.7.33,3.5,3.5,0,0,1,1.48,1A4.5,4.5,0,0,1,33.7,5.9l-3.24.58a1.75,1.75,0,0,0-.68-0.94,2.12,2.12,0,0,0-1.22-.33A2.2,2.2,0,0,0,26.79,6a3.7,3.7,0,0,0-.66,2.43,3.81,3.81,0,0,0,.66,2.52,2.33,2.33,0,0,0,1.85.76,3.52,3.52,0,0,0,1.08-.16A5.82,5.82,0,0,0,30.9,11v-1H28.65Z" transform="translate(-4.12 -1.82)"/><path d="M41,13.88V3h5.6a8.14,8.14,0,0,1,2.38.27,2.54,2.54,0,0,1,1.33,1A3,3,0,0,1,50.78,6a2.91,2.91,0,0,1-1.45,2.63,4.06,4.06,0,0,1-1.18.43,3.34,3.34,0,0,1,.88.4,3.36,3.36,0,0,1,.54.57,4.29,4.29,0,0,1,.47.68l1.63,3.15h-3.8l-1.8-3.32a2.53,2.53,0,0,0-.61-0.84,1.41,1.41,0,0,0-.82-0.25h-0.3v4.42H41Zm3.38-6.47h1.42a5.05,5.05,0,0,0,.89-0.15,0.89,0.89,0,0,0,.55-0.34,1,1,0,0,0,.21-0.63,1,1,0,0,0-.33-0.81,2,2,0,0,0-1.25-.28H44.33V7.41Z" transform="translate(-4.12 -1.82)"/><path d="M52.87,3h3.37V13.88H52.87V3Z" transform="translate(-4.12 -1.82)"/><path d="M57.58,3H61.1l2.45,7.83L66,3h3.41l-4,10.88H61.69Z" transform="translate(-4.12 -1.82)"/><path d="M70.47,3h9V5.32H73.83V7.05h5.23V9.27H73.83v2.15h5.8v2.46H70.47V3Z" transform="translate(-4.12 -1.82)"/><path d="M81.5,13.88V3h5.6a8.14,8.14,0,0,1,2.38.27,2.54,2.54,0,0,1,1.33,1A3,3,0,0,1,91.31,6a2.91,2.91,0,0,1-1.45,2.63,4.06,4.06,0,0,1-1.18.43,3.34,3.34,0,0,1,.88.4,3.38,3.38,0,0,1,.54.57,4.33,4.33,0,0,1,.47.68l1.63,3.15H88.4l-1.8-3.32A2.54,2.54,0,0,0,86,9.72a1.41,1.41,0,0,0-.82-0.25h-0.3v4.42H81.5Zm3.38-6.47h1.42a5.05,5.05,0,0,0,.89-0.15,0.89,0.89,0,0,0,.54-0.34,1,1,0,0,0,.21-0.63,1,1,0,0,0-.33-0.81,2,2,0,0,0-1.25-.28H84.87V7.41Z" transform="translate(-4.12 -1.82)"/><path d="M98.33,3h5.59a3.83,3.83,0,0,1,2.74.87,3.26,3.26,0,0,1,.91,2.47,3.35,3.35,0,0,1-1,2.58,4.29,4.29,0,0,1-3,.93H101.7v4H98.33V3Zm3.38,4.64h0.82a2.12,2.12,0,0,0,1.37-.34,1.09,1.09,0,0,0,.39-0.86,1.21,1.21,0,0,0-.34-0.87,1.77,1.77,0,0,0-1.28-.36h-1V7.64Z" transform="translate(-4.12 -1.82)"/><path d="M108.9,8.45a5.6,5.6,0,0,1,1.48-4.15,5.59,5.59,0,0,1,4.13-1.48,5.69,5.69,0,0,1,4.19,1.46,5.5,5.5,0,0,1,1.47,4.09,6.7,6.7,0,0,1-.64,3.13,4.57,4.57,0,0,1-1.86,1.9,6.12,6.12,0,0,1-3,.68,7,7,0,0,1-3-.59,4.58,4.58,0,0,1-2-1.86A6.17,6.17,0,0,1,108.9,8.45Zm3.36,0a3.65,3.65,0,0,0,.61,2.37,2.32,2.32,0,0,0,3.34,0,4,4,0,0,0,.59-2.53,3.36,3.36,0,0,0-.62-2.25,2.12,2.12,0,0,0-1.68-.71,2,2,0,0,0-1.63.72A3.66,3.66,0,0,0,112.26,8.46Z" transform="translate(-4.12 -1.82)"/><path d="M122,3h3.36V7.11L128.88,3h4.47l-4,4.11,4.15,6.77h-4.14l-2.29-4.47-1.74,1.82v2.65H122V3Z" transform="translate(-4.12 -1.82)"/><path d="M134.63,3h9V5.32H138V7.05h5.23V9.27H138v2.15h5.8v2.46h-9.17V3Z" transform="translate(-4.12 -1.82)"/><path d="M145.66,13.88V3h5.6a8.14,8.14,0,0,1,2.38.27,2.54,2.54,0,0,1,1.33,1,3,3,0,0,1,.5,1.76A2.91,2.91,0,0,1,154,8.65a4.06,4.06,0,0,1-1.18.43,3.34,3.34,0,0,1,.88.4,3.38,3.38,0,0,1,.54.57,4.33,4.33,0,0,1,.47.68l1.63,3.15h-3.8l-1.8-3.32a2.54,2.54,0,0,0-.61-0.84,1.41,1.41,0,0,0-.82-0.25H149v4.42h-3.38ZM149,7.41h1.42a5.05,5.05,0,0,0,.89-0.15,0.89,0.89,0,0,0,.54-0.34,1,1,0,0,0,.21-0.63,1,1,0,0,0-.33-0.81,2,2,0,0,0-1.25-.28H149V7.41Z" transform="translate(-4.12 -1.82)"/><path class="b" d="M4.12,2h6.29a3.43,3.43,0,0,1,2.42.78,2.52,2.52,0,0,1,.84,1.93,2.43,2.43,0,0,1-.6,1.65,2.68,2.68,0,0,1-1.17.73,3,3,0,0,1,1.73,1,2.66,2.66,0,0,1,.55,1.73,3,3,0,0,1-.39,1.52,2.9,2.9,0,0,1-1.08,1.07,3.55,3.55,0,0,1-1.28.36,14.66,14.66,0,0,1-1.51.15H4.12V2ZM7.51,6.27H9A1.68,1.68,0,0,0,10.07,6a1,1,0,0,0,.31-0.78,0.93,0.93,0,0,0-.31-0.74A1.65,1.65,0,0,0,9,4.21H7.51V6.27Zm0,4.27H9.23a1.88,1.88,0,0,0,1.22-.31,1,1,0,0,0,.36-0.83,1,1,0,0,0-.35-0.78,2,2,0,0,0-1.24-.29H7.51v2.2Z" transform="translate(-4.12 -1.82)"/><path class="b" d="M16.07,2h3.37V12.88H16.07V2Z" transform="translate(-4.12 -1.82)"/><path class="b" d="M27.32,8.94V6.68h5.19v4.64a10.65,10.65,0,0,1-2.64,1.38,9,9,0,0,1-2.72.37A6.61,6.61,0,0,1,24,12.41a4.52,4.52,0,0,1-1.89-2,6.46,6.46,0,0,1-.67-3,6.26,6.26,0,0,1,.73-3.1,4.76,4.76,0,0,1,2.15-2,7,7,0,0,1,3-.53,8.36,8.36,0,0,1,2.7.33,3.5,3.5,0,0,1,1.48,1,4.5,4.5,0,0,1,.89,1.74l-3.24.58a1.75,1.75,0,0,0-.68-0.94,2.12,2.12,0,0,0-1.22-.33A2.2,2.2,0,0,0,25.46,5,3.7,3.7,0,0,0,24.8,7.4a3.81,3.81,0,0,0,.66,2.52,2.33,2.33,0,0,0,1.85.76,3.52,3.52,0,0,0,1.08-.16A5.82,5.82,0,0,0,29.57,10v-1H27.32Z" transform="translate(-4.12 -1.82)"/><path class="b" d="M39.63,12.88V2h5.6a8.14,8.14,0,0,1,2.38.27,2.54,2.54,0,0,1,1.33,1A3,3,0,0,1,49.44,5,2.91,2.91,0,0,1,48,7.65a4.06,4.06,0,0,1-1.18.43,3.34,3.34,0,0,1,.88.4,3.36,3.36,0,0,1,.54.57,4.29,4.29,0,0,1,.47.68l1.63,3.15h-3.8l-1.8-3.32a2.53,2.53,0,0,0-.61-0.84,1.41,1.41,0,0,0-.82-0.25H43v4.42H39.63ZM43,6.41h1.42a5.05,5.05,0,0,0,.89-0.15,0.89,0.89,0,0,0,.55-0.34,1,1,0,0,0,.21-0.63,1,1,0,0,0-.33-0.81,2,2,0,0,0-1.25-.28H43V6.41Z" transform="translate(-4.12 -1.82)"/><path class="b" d="M51.54,2h3.37V12.88H51.54V2Z" transform="translate(-4.12 -1.82)"/><path class="b" d="M56.25,2h3.51l2.45,7.83L64.63,2H68L64,12.88H60.36Z" transform="translate(-4.12 -1.82)"/><path class="b" d="M69.13,2h9V4.32H72.5V6.05h5.23V8.27H72.5v2.15h5.8v2.46H69.13V2Z" transform="translate(-4.12 -1.82)"/><path class="b" d="M80.16,12.88V2h5.6a8.14,8.14,0,0,1,2.38.27,2.54,2.54,0,0,1,1.33,1A3,3,0,0,1,90,5a2.91,2.91,0,0,1-1.45,2.63,4.06,4.06,0,0,1-1.18.43,3.34,3.34,0,0,1,.88.4,3.38,3.38,0,0,1,.54.57,4.33,4.33,0,0,1,.47.68l1.63,3.15h-3.8l-1.8-3.32a2.54,2.54,0,0,0-.61-0.84,1.41,1.41,0,0,0-.82-0.25h-0.3v4.42H80.16Zm3.38-6.47H85a5.05,5.05,0,0,0,.89-0.15,0.89,0.89,0,0,0,.54-0.34,1,1,0,0,0,.21-0.63,1,1,0,0,0-.33-0.81A2,2,0,0,0,85,4.2H83.54V6.41Z" transform="translate(-4.12 -1.82)"/><path class="b" d="M97,2h5.59a3.83,3.83,0,0,1,2.74.87,3.26,3.26,0,0,1,.91,2.47,3.35,3.35,0,0,1-1,2.58,4.29,4.29,0,0,1-3,.93h-1.84v4H97V2Zm3.38,4.64h0.82a2.12,2.12,0,0,0,1.37-.34A1.09,1.09,0,0,0,103,5.44a1.21,1.21,0,0,0-.34-0.87,1.77,1.77,0,0,0-1.28-.36h-1V6.64Z" transform="translate(-4.12 -1.82)"/><path class="b" d="M107.56,7.45A5.6,5.6,0,0,1,109,3.3a5.59,5.59,0,0,1,4.13-1.48,5.69,5.69,0,0,1,4.19,1.46,5.5,5.5,0,0,1,1.47,4.09,6.7,6.7,0,0,1-.64,3.13,4.57,4.57,0,0,1-1.86,1.9,6.12,6.12,0,0,1-3,.68,7,7,0,0,1-3-.59,4.58,4.58,0,0,1-2-1.86A6.17,6.17,0,0,1,107.56,7.45Zm3.36,0a3.65,3.65,0,0,0,.61,2.37,2.32,2.32,0,0,0,3.34,0,4,4,0,0,0,.59-2.53,3.36,3.36,0,0,0-.62-2.25,2.12,2.12,0,0,0-1.68-.71,2,2,0,0,0-1.63.72A3.66,3.66,0,0,0,110.92,7.46Z" transform="translate(-4.12 -1.82)"/><path class="b" d="M120.66,2H124V6.11L127.54,2H132l-4,4.11,4.15,6.77h-4.14l-2.29-4.47L124,10.23v2.65h-3.36V2Z" transform="translate(-4.12 -1.82)"/><path class="b" d="M133.3,2h9V4.32h-5.64V6.05h5.23V8.27h-5.23v2.15h5.8v2.46H133.3V2Z" transform="translate(-4.12 -1.82)"/><path class="b" d="M144.33,12.88V2h5.6a8.14,8.14,0,0,1,2.38.27,2.54,2.54,0,0,1,1.33,1,3,3,0,0,1,.5,1.76,2.91,2.91,0,0,1-1.45,2.63,4.06,4.06,0,0,1-1.18.43,3.34,3.34,0,0,1,.88.4,3.38,3.38,0,0,1,.54.57,4.33,4.33,0,0,1,.47.68L155,12.88h-3.8l-1.8-3.32a2.54,2.54,0,0,0-.61-0.84A1.41,1.41,0,0,0,148,8.47h-0.3v4.42h-3.38Zm3.38-6.47h1.42A5.05,5.05,0,0,0,150,6.26a0.89,0.89,0,0,0,.54-0.34,1,1,0,0,0,.21-0.63,1,1,0,0,0-.33-0.81,2,2,0,0,0-1.25-.28H147.7V6.41Z" transform="translate(-4.12 -1.82)"/><path d="M5,17.16H7.8a2.12,2.12,0,0,1,1.39.39,1.36,1.36,0,0,1,.46,1.1,1.41,1.41,0,0,1-.5,1.15,2.38,2.38,0,0,1-1.54.42H6.67V22H5V17.16Zm1.72,2.07H7.09a1.19,1.19,0,0,0,.69-0.15A0.46,0.46,0,0,0,8,18.7a0.51,0.51,0,0,0-.17-0.39,1,1,0,0,0-.65-0.16H6.67v1.08Z" transform="translate(-4.12 -1.82)"/><path d="M13.29,21.22H11.35l-0.27.8H9.33l2.08-4.86h1.86L15.36,22H13.57Zm-0.35-1.05-0.61-1.75-0.6,1.75h1.21Z" transform="translate(-4.12 -1.82)"/><path d="M16,17.16h1.71V22H16V17.16Z" transform="translate(-4.12 -1.82)"/><path d="M18.93,22V17.16h2.85a4.71,4.71,0,0,1,1.21.12,1.29,1.29,0,0,1,.68.44,1.34,1.34,0,0,1,.06,1.49,1.46,1.46,0,0,1-.54.48,2.26,2.26,0,0,1-.6.19,1.82,1.82,0,0,1,.45.18,1.64,1.64,0,0,1,.27.26,1.92,1.92,0,0,1,.24.3L24.37,22H22.44l-0.91-1.49a1.16,1.16,0,0,0-.31-0.37,0.79,0.79,0,0,0-.42-0.11H20.65v2H18.93Zm1.72-2.89h0.72a3,3,0,0,0,.45-0.07,0.46,0.46,0,0,0,.28-0.15,0.42,0.42,0,0,0,.11-0.28A0.42,0.42,0,0,0,22,18.27a1.14,1.14,0,0,0-.64-0.13H20.65v1Z" transform="translate(-4.12 -1.82)"/><path d="M27.21,20.27a1.66,1.66,0,0,1,.62-1.33,2.51,2.51,0,0,1,1.67-.52,2.47,2.47,0,0,1,1.82.61,1.75,1.75,0,0,1-.12,2.55,2.55,2.55,0,0,1-1.7.52,2.61,2.61,0,0,1-1.56-.43A1.66,1.66,0,0,1,27.21,20.27Zm1.54,0A1,1,0,0,0,29,21a0.78,0.78,0,0,0,1.09,0,1,1,0,0,0,.21-0.71,1,1,0,0,0-.21-0.68,0.71,0.71,0,0,0-.53-0.22,0.74,0.74,0,0,0-.55.23A1,1,0,0,0,28.75,20.27Z" transform="translate(-4.12 -1.82)"/><path d="M34.26,18.5H35v1H34.26V22H32.72V19.49H32.15v-1h0.57V18.34a2.35,2.35,0,0,1,.05-0.47,0.89,0.89,0,0,1,.2-0.42,1,1,0,0,1,.41-0.27,2.24,2.24,0,0,1,.77-0.1q0.4,0,1.17.08L35.15,18a3.3,3.3,0,0,0-.45,0,0.55,0.55,0,0,0-.3.06,0.33,0.33,0,0,0-.13.19A1.58,1.58,0,0,0,34.26,18.5Z" transform="translate(-4.12 -1.82)"/><path d="M42.89,18.26l-1.53.17a0.69,0.69,0,0,0-.2-0.4,0.53,0.53,0,0,0-.35-0.12,0.65,0.65,0,0,0-.58.33,2.67,2.67,0,0,0-.22,1,2,2,0,0,1,.57-0.36,1.94,1.94,0,0,1,1.92.35A1.52,1.52,0,0,1,43,20.42a1.58,1.58,0,0,1-.26.88,1.61,1.61,0,0,1-.72.6,2.84,2.84,0,0,1-1.15.2,3,3,0,0,1-1.33-.25,1.85,1.85,0,0,1-.8-0.79,3,3,0,0,1-.3-1.45,2.59,2.59,0,0,1,.63-1.93,2.4,2.4,0,0,1,1.75-.61,3.25,3.25,0,0,1,1,.13,1.63,1.63,0,0,1,.64.39A1.69,1.69,0,0,1,42.89,18.26Zm-2.83,2.17a0.83,0.83,0,0,0,.23.62,0.76,0.76,0,0,0,.55.22,0.69,0.69,0,0,0,.51-0.2,0.81,0.81,0,0,0,.2-0.6,0.86,0.86,0,0,0-.21-0.63,0.7,0.7,0,0,0-.52-0.22,0.74,0.74,0,0,0-.54.21A0.79,0.79,0,0,0,40.06,20.42Z" transform="translate(-4.12 -1.82)"/><path d="M43.47,21L45,20.92a0.66,0.66,0,0,0,.26.34,0.87,0.87,0,0,0,.45.1,0.85,0.85,0,0,0,.48-0.12A0.25,0.25,0,0,0,46.32,21a0.25,0.25,0,0,0-.17-0.23,3.54,3.54,0,0,0-.66-0.14,7.62,7.62,0,0,1-1.11-.23,1.16,1.16,0,0,1-.52-0.35,0.84,0.84,0,0,1-.21-0.57,0.86,0.86,0,0,1,.23-0.6,1.39,1.39,0,0,1,.63-0.38,3.8,3.8,0,0,1,1.08-.12,4.28,4.28,0,0,1,1.06.1,1.44,1.44,0,0,1,.57.3,1.55,1.55,0,0,1,.38.55l-1.46.13a0.44,0.44,0,0,0-.19-0.25,0.86,0.86,0,0,0-.44-0.11,0.69,0.69,0,0,0-.38.08,0.24,0.24,0,0,0-.12.2,0.21,0.21,0,0,0,.15.2,2.69,2.69,0,0,0,.66.12,5,5,0,0,1,1.14.21,1.24,1.24,0,0,1,.57.39,0.87,0.87,0,0,1,.2.55,1,1,0,0,1-.21.59,1.4,1.4,0,0,1-.66.46,3.58,3.58,0,0,1-1.23.17,3.25,3.25,0,0,1-1.56-.28A1.25,1.25,0,0,1,43.47,21Z" transform="translate(-4.12 -1.82)"/><path d="M52.89,17.16V18.5h0.85v1H52.89v1.25a0.6,0.6,0,0,0,0,.3,0.29,0.29,0,0,0,.26.11,1.88,1.88,0,0,0,.48-0.09L53.79,22a5.65,5.65,0,0,1-1.06.11A2.08,2.08,0,0,1,51.88,22a0.83,0.83,0,0,1-.4-0.39,2,2,0,0,1-.13-0.85V19.49H50.78v-1h0.57V17.85Z" transform="translate(-4.12 -1.82)"/><path d="M54.47,17.16H56V19a2.08,2.08,0,0,1,.62-0.41,2,2,0,0,1,.73-0.12,1.39,1.39,0,0,1,1,.33,1.34,1.34,0,0,1,.36,1V22H57.16V20.09A0.64,0.64,0,0,0,57,19.62a0.54,0.54,0,0,0-.39-0.14,0.59,0.59,0,0,0-.45.19,1,1,0,0,0-.17.67V22H54.47V17.16Z" transform="translate(-4.12 -1.82)"/><path d="M59.64,18.5h1.44v0.58a1.42,1.42,0,0,1,.43-0.52A1,1,0,0,1,62,18.42a1.79,1.79,0,0,1,.74.19l-0.48,1a1.34,1.34,0,0,0-.43-0.1,0.55,0.55,0,0,0-.47.22,2,2,0,0,0-.24,1.15V22H59.64V18.5Z" transform="translate(-4.12 -1.82)"/><path d="M67.53,22H66.1V21.45a2.06,2.06,0,0,1-.65.5,1.92,1.92,0,0,1-.8.15,1.41,1.41,0,0,1-1-.33,1.33,1.33,0,0,1-.36-1V18.5h1.54v1.94a0.65,0.65,0,0,0,.14.47,0.53,0.53,0,0,0,.39.14,0.59,0.59,0,0,0,.45-0.19A1,1,0,0,0,66,20.2V18.5h1.54V22Z" transform="translate(-4.12 -1.82)"/><path d="M74.38,17.08V22H72.82V18.78a4.85,4.85,0,0,1-.73.41,6.22,6.22,0,0,1-.88.3V18.38a3.94,3.94,0,0,0,1.22-.53,2.24,2.24,0,0,0,.68-0.77h1.27Z" transform="translate(-4.12 -1.82)"/><path d="M76,19.57a2.66,2.66,0,0,1,.57-1.94,2.39,2.39,0,0,1,1.73-.55,2.94,2.94,0,0,1,.92.12,1.75,1.75,0,0,1,.58.32,1.71,1.71,0,0,1,.36.41,2,2,0,0,1,.21.5,4.13,4.13,0,0,1,.15,1.13,3,3,0,0,1-.51,1.94,2.17,2.17,0,0,1-1.75.61,2.76,2.76,0,0,1-1.13-.2,1.77,1.77,0,0,1-.71-0.57,2,2,0,0,1-.31-0.74A4.43,4.43,0,0,1,76,19.57Zm1.52,0a2.93,2.93,0,0,0,.19,1.27,0.59,0.59,0,0,0,.54.34A0.61,0.61,0,0,0,78.71,21,0.86,0.86,0,0,0,79,20.58a4.21,4.21,0,0,0,.08-1,3,3,0,0,0-.19-1.3A0.6,0.6,0,0,0,78.29,18a0.57,0.57,0,0,0-.55.34A3.17,3.17,0,0,0,77.57,19.58Z" transform="translate(-4.12 -1.82)"/><path d="M81.08,21l1.52-.13a0.66,0.66,0,0,0,.26.34,0.87,0.87,0,0,0,.45.1,0.85,0.85,0,0,0,.48-0.12A0.25,0.25,0,0,0,83.93,21a0.25,0.25,0,0,0-.17-0.23,3.54,3.54,0,0,0-.66-0.14A7.62,7.62,0,0,1,82,20.44a1.16,1.16,0,0,1-.52-0.35,0.84,0.84,0,0,1-.21-0.57,0.86,0.86,0,0,1,.23-0.6,1.39,1.39,0,0,1,.63-0.38,3.8,3.8,0,0,1,1.08-.12,4.28,4.28,0,0,1,1.06.1,1.44,1.44,0,0,1,.57.3,1.55,1.55,0,0,1,.38.55l-1.46.13a0.44,0.44,0,0,0-.19-0.25,0.86,0.86,0,0,0-.44-0.11,0.69,0.69,0,0,0-.38.08,0.24,0.24,0,0,0-.12.2,0.21,0.21,0,0,0,.15.2,2.69,2.69,0,0,0,.66.12,5,5,0,0,1,1.14.21,1.24,1.24,0,0,1,.57.39,0.87,0.87,0,0,1,.2.55,1,1,0,0,1-.21.59,1.4,1.4,0,0,1-.66.46,3.58,3.58,0,0,1-1.23.17,3.25,3.25,0,0,1-1.56-.28A1.25,1.25,0,0,1,81.08,21Z" transform="translate(-4.12 -1.82)"/><path d="M88.74,17.16h2.84a2.12,2.12,0,0,1,1.39.39,1.36,1.36,0,0,1,.46,1.1,1.41,1.41,0,0,1-.5,1.15,2.38,2.38,0,0,1-1.54.42H90.46V22H88.74V17.16Zm1.72,2.07h0.42a1.19,1.19,0,0,0,.69-0.15,0.46,0.46,0,0,0,.2-0.39,0.51,0.51,0,0,0-.17-0.39,1,1,0,0,0-.65-0.16H90.46v1.08Z" transform="translate(-4.12 -1.82)"/><path d="M97.93,17.16h1.71v2.9a2.16,2.16,0,0,1-.15.81,1.75,1.75,0,0,1-.48.67,2,2,0,0,1-.69.4,3.91,3.91,0,0,1-1.2.16,8.54,8.54,0,0,1-.88,0,2.54,2.54,0,0,1-.8-0.2,2,2,0,0,1-.59-0.42,1.5,1.5,0,0,1-.36-0.56,2.59,2.59,0,0,1-.16-0.82v-2.9H96v3a0.79,0.79,0,0,0,.25.62,1.2,1.2,0,0,0,1.39,0,0.78,0.78,0,0,0,.25-0.62v-3Z" transform="translate(-4.12 -1.82)"/><path d="M100.47,20.41l1.63-.09a1,1,0,0,0,.21.53,1,1,0,0,0,.75.3,0.92,0.92,0,0,0,.56-0.15,0.44,0.44,0,0,0,.2-0.35,0.43,0.43,0,0,0-.19-0.34,2.37,2.37,0,0,0-.87-0.28,4,4,0,0,1-1.6-.59,1.13,1.13,0,0,1-.48-0.94,1.17,1.17,0,0,1,.25-0.71,1.62,1.62,0,0,1,.74-0.52,3.88,3.88,0,0,1,1.36-.19,3.09,3.09,0,0,1,1.62.35,1.46,1.46,0,0,1,.66,1.1l-1.61.08a0.73,0.73,0,0,0-.27-0.48,1,1,0,0,0-.57-0.15,0.76,0.76,0,0,0-.45.11,0.33,0.33,0,0,0-.15.27,0.26,0.26,0,0,0,.13.21,1.52,1.52,0,0,0,.57.18,7.87,7.87,0,0,1,1.61.43,1.64,1.64,0,0,1,.71.54,1.24,1.24,0,0,1,.22.72,1.42,1.42,0,0,1-.29.86,1.81,1.81,0,0,1-.82.6,3.74,3.74,0,0,1-1.33.2,3,3,0,0,1-2-.48A1.79,1.79,0,0,1,100.47,20.41Z" transform="translate(-4.12 -1.82)"/><path d="M106.36,17.16h1.71v1.7h1.87v-1.7h1.72V22h-1.72v-2h-1.87v2h-1.71V17.16Z" transform="translate(-4.12 -1.82)"/><path d="M121,22V17.16h2.85a4.71,4.71,0,0,1,1.21.12,1.29,1.29,0,0,1,.68.44,1.34,1.34,0,0,1,.06,1.49,1.45,1.45,0,0,1-.54.48,2.25,2.25,0,0,1-.6.19,1.81,1.81,0,0,1,.44.18,1.59,1.59,0,0,1,.27.26,1.86,1.86,0,0,1,.24.3L126.41,22h-1.93l-0.91-1.49a1.16,1.16,0,0,0-.31-0.37,0.79,0.79,0,0,0-.42-0.11h-0.15v2H121Zm1.72-2.89h0.72a2.94,2.94,0,0,0,.45-0.07,0.46,0.46,0,0,0,.28-0.15,0.42,0.42,0,0,0,.11-0.28,0.42,0.42,0,0,0-.17-0.36,1.14,1.14,0,0,0-.64-0.13h-0.75v1Z" transform="translate(-4.12 -1.82)"/><path d="M126.5,17.16h5.2v1.2H130V22h-1.71V18.36H126.5v-1.2Z" transform="translate(-4.12 -1.82)"/><path d="M132.46,17.16h2.84a2.12,2.12,0,0,1,1.39.39,1.36,1.36,0,0,1,.46,1.1,1.41,1.41,0,0,1-.5,1.15,2.38,2.38,0,0,1-1.54.42h-0.94V22h-1.72V17.16Zm1.72,2.07h0.42a1.19,1.19,0,0,0,.69-0.15,0.46,0.46,0,0,0,.2-0.39,0.51,0.51,0,0,0-.17-0.39,1,1,0,0,0-.65-0.16h-0.49v1.08Z" transform="translate(-4.12 -1.82)"/><path d="M138,18.5h1.64v1.35H138V18.5Zm0,2.17h1.64V22H138V20.67Z" transform="translate(-4.12 -1.82)"/><path d="M143,20.93l1.53-.17a0.68,0.68,0,0,0,.2.4,0.54,0.54,0,0,0,.35.12,0.65,0.65,0,0,0,.58-0.33,2.74,2.74,0,0,0,.23-1,1.9,1.9,0,0,1-.57.36,2,2,0,0,1-1.93-.35,1.52,1.52,0,0,1-.51-1.17,1.57,1.57,0,0,1,.26-0.88,1.63,1.63,0,0,1,.72-0.6,2.83,2.83,0,0,1,1.15-.2,3,3,0,0,1,1.33.25,1.85,1.85,0,0,1,.8.8,3,3,0,0,1,.3,1.44,2.59,2.59,0,0,1-.63,1.93,2.4,2.4,0,0,1-1.75.61,3.23,3.23,0,0,1-1-.13,1.63,1.63,0,0,1-.63-0.39A1.74,1.74,0,0,1,143,20.93Zm2.83-2.17a0.83,0.83,0,0,0-.23-0.62,0.76,0.76,0,0,0-.55-0.22,0.69,0.69,0,0,0-.51.2,0.83,0.83,0,0,0-.2.61,0.86,0.86,0,0,0,.21.62,0.7,0.7,0,0,0,.52.22,0.74,0.74,0,0,0,.54-0.21A0.79,0.79,0,0,0,145.85,18.76Z" transform="translate(-4.12 -1.82)"/><path d="M149,19.41A1.44,1.44,0,0,1,148.5,19a1,1,0,0,1-.23-0.66,1.14,1.14,0,0,1,.65-1,2.65,2.65,0,0,1,1.35-.3,2.88,2.88,0,0,1,1.64.37,1.11,1.11,0,0,1,.53.94,1,1,0,0,1-.21.61,1.66,1.66,0,0,1-.5.41,1.51,1.51,0,0,1,.67.5,1.17,1.17,0,0,1,.22.69,1.3,1.3,0,0,1-.19.68,1.44,1.44,0,0,1-.47.49,2.06,2.06,0,0,1-.69.25,4.61,4.61,0,0,1-.88.08,3.82,3.82,0,0,1-1.34-.18,1.48,1.48,0,0,1-.71-0.54,1.38,1.38,0,0,1-.24-0.79,1.16,1.16,0,0,1,.23-0.72A1.44,1.44,0,0,1,149,19.41Zm0.61,1.14a0.68,0.68,0,0,0,.22.53,0.73,0.73,0,0,0,.51.2,0.7,0.7,0,0,0,.49-0.21,0.74,0.74,0,0,0,0-1.05,0.72,0.72,0,0,0-.51-0.21,0.71,0.71,0,0,0-.5.2A0.7,0.7,0,0,0,149.64,20.55Zm0.08-2.09a0.51,0.51,0,0,0,.18.41,0.71,0.71,0,0,0,.48.15,0.63,0.63,0,0,0,.43-0.15,0.51,0.51,0,0,0,.17-0.39,0.52,0.52,0,0,0-.18-0.41,0.74,0.74,0,0,0-.91,0A0.5,0.5,0,0,0,149.72,18.45Z" transform="translate(-4.12 -1.82)"/><path d="M153.41,20.67h1.64V22h-1.64V20.67Z" transform="translate(-4.12 -1.82)"/><path d="M160.29,18.26l-1.53.17a0.7,0.7,0,0,0-.2-0.4,0.54,0.54,0,0,0-.35-0.12,0.65,0.65,0,0,0-.58.33,2.69,2.69,0,0,0-.22,1A2,2,0,0,1,158,18.9a1.94,1.94,0,0,1,1.92.35,1.52,1.52,0,0,1,.51,1.18,1.58,1.58,0,0,1-.26.88,1.62,1.62,0,0,1-.72.6,2.84,2.84,0,0,1-1.15.2,3,3,0,0,1-1.33-.25,1.84,1.84,0,0,1-.8-0.79,3,3,0,0,1-.3-1.45,2.58,2.58,0,0,1,.63-1.93,2.4,2.4,0,0,1,1.75-.61,3.24,3.24,0,0,1,1,.13,1.62,1.62,0,0,1,.64.39A1.7,1.7,0,0,1,160.29,18.26Zm-2.83,2.17a0.83,0.83,0,0,0,.23.62,0.76,0.76,0,0,0,.55.22,0.69,0.69,0,0,0,.51-0.2,0.82,0.82,0,0,0,.2-0.6,0.86,0.86,0,0,0-.21-0.63,0.7,0.7,0,0,0-.52-0.22,0.74,0.74,0,0,0-.54.21A0.79,0.79,0,0,0,157.46,20.42Z" transform="translate(-4.12 -1.82)"/><path d="M162.48,18.57L161,18.34a1.61,1.61,0,0,1,.7-0.94,2.74,2.74,0,0,1,1.46-.33,2.68,2.68,0,0,1,1.57.36,1.07,1.07,0,0,1,.48.89,0.91,0.91,0,0,1-.2.57,1.62,1.62,0,0,1-.59.45,1.9,1.9,0,0,1,.49.16,1.13,1.13,0,0,1,.43.39,1.07,1.07,0,0,1,.15.58,1.47,1.47,0,0,1-.25.81,1.62,1.62,0,0,1-.73.6,3.11,3.11,0,0,1-1.25.21A3.63,3.63,0,0,1,162.1,22a1.78,1.78,0,0,1-.72-0.46,2,2,0,0,1-.43-0.75l1.54-.18a1,1,0,0,0,.28.57,0.73,0.73,0,0,0,.48.16,0.69,0.69,0,0,0,.72-0.73,0.69,0.69,0,0,0-.2-0.52,0.76,0.76,0,0,0-.54-0.19,2.15,2.15,0,0,0-.5.08l0.08-1,0.2,0a0.76,0.76,0,0,0,.5-0.17,0.51,0.51,0,0,0,.2-0.4,0.45,0.45,0,0,0-.15-0.35,0.61,0.61,0,0,0-.42-0.13,0.66,0.66,0,0,0-.44.14A0.83,0.83,0,0,0,162.48,18.57Z" transform="translate(-4.12 -1.82)"/><path d="M166.2,18.36a1.31,1.31,0,0,1,.17-0.64,1.1,1.1,0,0,1,.51-0.47,1.89,1.89,0,0,1,.82-0.16,1.61,1.61,0,0,1,1.09.35,1.28,1.28,0,0,1,0,1.86,1.61,1.61,0,0,1-1.09.35,1.89,1.89,0,0,1-.82-0.16,1.1,1.1,0,0,1-.51-0.47A1.32,1.32,0,0,1,166.2,18.36Zm1.06,0a1,1,0,0,0,.15.6,0.35,0.35,0,0,0,.29.12A0.34,0.34,0,0,0,168,19a1,1,0,0,0,.15-0.6,1,1,0,0,0-.15-0.6,0.34,0.34,0,0,0-.28-0.12,0.35,0.35,0,0,0-.29.12A1,1,0,0,0,167.26,18.36Zm3.64-1.28h0.8l-3.2,5.2h-0.79ZM170.19,21a1.33,1.33,0,0,1,.17-0.65,1.12,1.12,0,0,1,.51-0.47,1.87,1.87,0,0,1,.81-0.17,1.61,1.61,0,0,1,1.1.35,1.28,1.28,0,0,1,0,1.86,1.62,1.62,0,0,1-1.1.35,1.87,1.87,0,0,1-.81-0.17,1.11,1.11,0,0,1-.51-0.47A1.33,1.33,0,0,1,170.19,21Zm1.06,0a1,1,0,0,0,.15.6,0.34,0.34,0,0,0,.28.12,0.35,0.35,0,0,0,.29-0.12,1,1,0,0,0,.15-0.6,1,1,0,0,0-.15-0.6,0.35,0.35,0,0,0-.29-0.12,0.33,0.33,0,0,0-.28.12A1,1,0,0,0,171.25,21Z" transform="translate(-4.12 -1.82)"/><path class="c" d="M4.71,16.58H7.55A2.12,2.12,0,0,1,8.94,17a1.36,1.36,0,0,1,.46,1.1,1.41,1.41,0,0,1-.5,1.15,2.38,2.38,0,0,1-1.54.42H6.42v1.8H4.71V16.58Zm1.72,2.07H6.84a1.19,1.19,0,0,0,.69-0.15,0.46,0.46,0,0,0,.2-0.39,0.51,0.51,0,0,0-.17-0.39,1,1,0,0,0-.65-0.16H6.42v1.08Z" transform="translate(-4.12 -1.82)"/><path class="c" d="M13,20.64H11.1l-0.27.8H9.08l2.08-4.86H13l2.08,4.86H13.32Zm-0.35-1.05-0.61-1.75-0.6,1.75h1.21Z" transform="translate(-4.12 -1.82)"/><path class="c" d="M15.72,16.58h1.71v4.86H15.72V16.58Z" transform="translate(-4.12 -1.82)"/><path class="c" d="M18.68,21.44V16.58h2.85a4.71,4.71,0,0,1,1.21.12,1.29,1.29,0,0,1,.68.44,1.34,1.34,0,0,1,.06,1.49,1.46,1.46,0,0,1-.54.48,2.26,2.26,0,0,1-.6.19,1.82,1.82,0,0,1,.45.18,1.64,1.64,0,0,1,.27.26,1.92,1.92,0,0,1,.24.3l0.83,1.41H22.19L21.28,20A1.16,1.16,0,0,0,21,19.58a0.79,0.79,0,0,0-.42-0.11H20.4v2H18.68Zm1.72-2.89h0.72a3,3,0,0,0,.45-0.07,0.46,0.46,0,0,0,.28-0.15A0.42,0.42,0,0,0,22,18a0.42,0.42,0,0,0-.17-0.36,1.14,1.14,0,0,0-.64-0.13H20.4v1Z" transform="translate(-4.12 -1.82)"/><path class="c" d="M27,19.69a1.66,1.66,0,0,1,.62-1.33,2.51,2.51,0,0,1,1.67-.52,2.47,2.47,0,0,1,1.82.61A1.75,1.75,0,0,1,30.95,21a2.55,2.55,0,0,1-1.7.52,2.61,2.61,0,0,1-1.56-.43A1.66,1.66,0,0,1,27,19.69Zm1.54,0a1,1,0,0,0,.22.7,0.78,0.78,0,0,0,1.09,0A1,1,0,0,0,30,19.67,1,1,0,0,0,29.8,19a0.71,0.71,0,0,0-.53-0.22,0.74,0.74,0,0,0-.55.23A1,1,0,0,0,28.5,19.69Z" transform="translate(-4.12 -1.82)"/><path class="c" d="M34,17.92h0.73v1H34v2.53H32.47V18.91H31.9v-1h0.57V17.76a2.35,2.35,0,0,1,.05-0.47,0.89,0.89,0,0,1,.2-0.42,1,1,0,0,1,.41-0.27,2.24,2.24,0,0,1,.77-0.1q0.4,0,1.17.08l-0.17.82a3.3,3.3,0,0,0-.45,0,0.55,0.55,0,0,0-.3.06,0.33,0.33,0,0,0-.13.19A1.58,1.58,0,0,0,34,17.92Z" transform="translate(-4.12 -1.82)"/><path class="c" d="M42.64,17.67l-1.53.17a0.69,0.69,0,0,0-.2-0.4,0.53,0.53,0,0,0-.35-0.12,0.65,0.65,0,0,0-.58.33,2.67,2.67,0,0,0-.22,1,2,2,0,0,1,.57-0.36,1.94,1.94,0,0,1,1.92.35,1.52,1.52,0,0,1,.51,1.18,1.58,1.58,0,0,1-.26.88,1.61,1.61,0,0,1-.72.6,2.84,2.84,0,0,1-1.15.2,3,3,0,0,1-1.33-.25,1.85,1.85,0,0,1-.8-0.79,3,3,0,0,1-.3-1.45,2.59,2.59,0,0,1,.63-1.93,2.4,2.4,0,0,1,1.75-.61,3.25,3.25,0,0,1,1,.13,1.63,1.63,0,0,1,.64.39A1.69,1.69,0,0,1,42.64,17.67Zm-2.83,2.17a0.83,0.83,0,0,0,.23.62,0.76,0.76,0,0,0,.55.22,0.69,0.69,0,0,0,.51-0.2,0.81,0.81,0,0,0,.2-0.6,0.86,0.86,0,0,0-.21-0.63A0.7,0.7,0,0,0,40.56,19a0.74,0.74,0,0,0-.54.21A0.79,0.79,0,0,0,39.81,19.84Z" transform="translate(-4.12 -1.82)"/><path class="c" d="M43.22,20.46l1.52-.13a0.66,0.66,0,0,0,.26.34,0.87,0.87,0,0,0,.45.1,0.85,0.85,0,0,0,.48-0.12,0.25,0.25,0,0,0,.13-0.21,0.25,0.25,0,0,0-.17-0.23,3.54,3.54,0,0,0-.66-0.14,7.62,7.62,0,0,1-1.11-.23,1.16,1.16,0,0,1-.52-0.35,0.84,0.84,0,0,1-.21-0.57,0.86,0.86,0,0,1,.23-0.6A1.39,1.39,0,0,1,44.25,18a3.8,3.8,0,0,1,1.08-.12,4.28,4.28,0,0,1,1.06.1,1.44,1.44,0,0,1,.57.3,1.55,1.55,0,0,1,.38.55l-1.46.13a0.44,0.44,0,0,0-.19-0.25,0.86,0.86,0,0,0-.44-0.11,0.69,0.69,0,0,0-.38.08,0.24,0.24,0,0,0-.12.2,0.21,0.21,0,0,0,.15.2,2.69,2.69,0,0,0,.66.12,5,5,0,0,1,1.14.21,1.24,1.24,0,0,1,.57.39,0.87,0.87,0,0,1,.2.55,1,1,0,0,1-.21.59,1.4,1.4,0,0,1-.66.46,3.58,3.58,0,0,1-1.23.17,3.25,3.25,0,0,1-1.56-.28A1.25,1.25,0,0,1,43.22,20.46Z" transform="translate(-4.12 -1.82)"/><path class="c" d="M52.64,16.58v1.34h0.85v1H52.64v1.25a0.6,0.6,0,0,0,0,.3,0.29,0.29,0,0,0,.26.11,1.88,1.88,0,0,0,.48-0.09l0.11,0.93a5.65,5.65,0,0,1-1.06.11,2.08,2.08,0,0,1-.85-0.13,0.83,0.83,0,0,1-.4-0.39,2,2,0,0,1-.13-0.85V18.91H50.53v-1H51.1V17.27Z" transform="translate(-4.12 -1.82)"/><path class="c" d="M54.22,16.58h1.54v1.79A2.08,2.08,0,0,1,56.38,18a2,2,0,0,1,.73-0.12,1.39,1.39,0,0,1,1,.33,1.34,1.34,0,0,1,.36,1v2.24H56.91V19.5A0.64,0.64,0,0,0,56.77,19a0.54,0.54,0,0,0-.39-0.14,0.59,0.59,0,0,0-.45.19,1,1,0,0,0-.17.67v1.69H54.22V16.58Z" transform="translate(-4.12 -1.82)"/><path class="c" d="M59.39,17.92h1.44V18.5A1.42,1.42,0,0,1,61.25,18a1,1,0,0,1,.55-0.14,1.79,1.79,0,0,1,.74.19l-0.48,1a1.34,1.34,0,0,0-.43-0.1,0.55,0.55,0,0,0-.47.22,2,2,0,0,0-.24,1.15v1.18H59.39V17.92Z" transform="translate(-4.12 -1.82)"/><path class="c" d="M67.28,21.44H65.85V20.87a2.06,2.06,0,0,1-.65.5,1.92,1.92,0,0,1-.8.15,1.41,1.41,0,0,1-1-.33,1.33,1.33,0,0,1-.36-1V17.92h1.54v1.94a0.65,0.65,0,0,0,.14.47,0.53,0.53,0,0,0,.39.14,0.59,0.59,0,0,0,.45-0.19,1,1,0,0,0,.18-0.67v-1.7h1.54v3.52Z" transform="translate(-4.12 -1.82)"/><path class="c" d="M74.13,16.49v4.95H72.57V18.2a4.85,4.85,0,0,1-.73.41,6.22,6.22,0,0,1-.88.3V17.8a3.94,3.94,0,0,0,1.22-.53,2.24,2.24,0,0,0,.68-0.77h1.27Z" transform="translate(-4.12 -1.82)"/><path class="c" d="M75.8,19A2.66,2.66,0,0,1,76.37,17a2.39,2.39,0,0,1,1.73-.55,2.94,2.94,0,0,1,.92.12,1.75,1.75,0,0,1,.58.32,1.71,1.71,0,0,1,.36.41,2,2,0,0,1,.21.5A4.13,4.13,0,0,1,80.32,19a3,3,0,0,1-.51,1.94,2.17,2.17,0,0,1-1.75.61,2.76,2.76,0,0,1-1.13-.2,1.77,1.77,0,0,1-.71-0.57A2,2,0,0,1,75.91,20,4.43,4.43,0,0,1,75.8,19Zm1.52,0a2.93,2.93,0,0,0,.19,1.27,0.59,0.59,0,0,0,.54.34,0.61,0.61,0,0,0,.41-0.14A0.86,0.86,0,0,0,78.71,20a4.21,4.21,0,0,0,.08-1,3,3,0,0,0-.19-1.3A0.6,0.6,0,0,0,78,17.39a0.57,0.57,0,0,0-.55.34A3.17,3.17,0,0,0,77.32,19Z" transform="translate(-4.12 -1.82)"/><path class="c" d="M80.83,20.46l1.52-.13a0.66,0.66,0,0,0,.26.34,0.87,0.87,0,0,0,.45.1,0.85,0.85,0,0,0,.48-0.12,0.25,0.25,0,0,0,.13-0.21,0.25,0.25,0,0,0-.17-0.23,3.54,3.54,0,0,0-.66-0.14,7.62,7.62,0,0,1-1.11-.23,1.16,1.16,0,0,1-.52-0.35A0.84,0.84,0,0,1,81,18.94a0.86,0.86,0,0,1,.23-0.6A1.39,1.39,0,0,1,81.86,18a3.8,3.8,0,0,1,1.08-.12,4.28,4.28,0,0,1,1.06.1,1.44,1.44,0,0,1,.57.3,1.55,1.55,0,0,1,.38.55l-1.46.13a0.44,0.44,0,0,0-.19-0.25,0.86,0.86,0,0,0-.44-0.11,0.69,0.69,0,0,0-.38.08,0.24,0.24,0,0,0-.12.2,0.21,0.21,0,0,0,.15.2,2.69,2.69,0,0,0,.66.12,5,5,0,0,1,1.14.21,1.24,1.24,0,0,1,.57.39,0.87,0.87,0,0,1,.2.55,1,1,0,0,1-.21.59,1.4,1.4,0,0,1-.66.46,3.58,3.58,0,0,1-1.23.17,3.25,3.25,0,0,1-1.56-.28A1.25,1.25,0,0,1,80.83,20.46Z" transform="translate(-4.12 -1.82)"/><path class="c" d="M88.49,16.58h2.84a2.12,2.12,0,0,1,1.39.39,1.36,1.36,0,0,1,.46,1.1,1.41,1.41,0,0,1-.5,1.15,2.38,2.38,0,0,1-1.54.42H90.21v1.8H88.49V16.58Zm1.72,2.07h0.42a1.19,1.19,0,0,0,.69-0.15,0.46,0.46,0,0,0,.2-0.39,0.51,0.51,0,0,0-.17-0.39,1,1,0,0,0-.65-0.16H90.21v1.08Z" transform="translate(-4.12 -1.82)"/><path class="c" d="M97.68,16.58h1.71v2.9a2.16,2.16,0,0,1-.15.81,1.75,1.75,0,0,1-.48.67,2,2,0,0,1-.69.4,3.91,3.91,0,0,1-1.2.16,8.54,8.54,0,0,1-.88,0,2.54,2.54,0,0,1-.8-0.2,2,2,0,0,1-.59-0.42,1.5,1.5,0,0,1-.36-0.56,2.59,2.59,0,0,1-.16-0.82v-2.9h1.71v3a0.79,0.79,0,0,0,.25.62,1.2,1.2,0,0,0,1.39,0,0.78,0.78,0,0,0,.25-0.62v-3Z" transform="translate(-4.12 -1.82)"/><path class="c" d="M100.22,19.83l1.63-.09a1,1,0,0,0,.21.53,1,1,0,0,0,.75.3,0.92,0.92,0,0,0,.56-0.15,0.44,0.44,0,0,0,.2-0.35,0.43,0.43,0,0,0-.19-0.34,2.37,2.37,0,0,0-.87-0.28,4,4,0,0,1-1.6-.59,1.13,1.13,0,0,1-.48-0.94,1.17,1.17,0,0,1,.25-0.71,1.62,1.62,0,0,1,.74-0.52,3.88,3.88,0,0,1,1.36-.19,3.09,3.09,0,0,1,1.62.35,1.46,1.46,0,0,1,.66,1.1l-1.61.08a0.73,0.73,0,0,0-.27-0.48,1,1,0,0,0-.57-0.15,0.76,0.76,0,0,0-.45.11,0.33,0.33,0,0,0-.15.27,0.26,0.26,0,0,0,.13.21,1.52,1.52,0,0,0,.57.18,7.87,7.87,0,0,1,1.61.43,1.64,1.64,0,0,1,.71.54,1.24,1.24,0,0,1,.22.72,1.42,1.42,0,0,1-.29.86,1.81,1.81,0,0,1-.82.6,3.74,3.74,0,0,1-1.33.2,3,3,0,0,1-2-.48A1.79,1.79,0,0,1,100.22,19.83Z" transform="translate(-4.12 -1.82)"/><path class="c" d="M106.11,16.58h1.71v1.7h1.87v-1.7h1.72v4.86h-1.72v-2h-1.87v2h-1.71V16.58Z" transform="translate(-4.12 -1.82)"/><path class="c" d="M120.72,21.44V16.58h2.85a4.71,4.71,0,0,1,1.21.12,1.29,1.29,0,0,1,.68.44,1.34,1.34,0,0,1,.06,1.49,1.45,1.45,0,0,1-.54.48,2.25,2.25,0,0,1-.6.19,1.81,1.81,0,0,1,.44.18,1.59,1.59,0,0,1,.27.26,1.86,1.86,0,0,1,.24.3l0.83,1.41h-1.93L123.31,20a1.16,1.16,0,0,0-.31-0.37,0.79,0.79,0,0,0-.42-0.11h-0.15v2h-1.72Zm1.72-2.89h0.72a2.94,2.94,0,0,0,.45-0.07,0.46,0.46,0,0,0,.28-0.15A0.42,0.42,0,0,0,124,18a0.42,0.42,0,0,0-.17-0.36,1.14,1.14,0,0,0-.64-0.13h-0.75v1Z" transform="translate(-4.12 -1.82)"/><path class="c" d="M126.25,16.58h5.2v1.2H129.7v3.66H128V17.78h-1.74v-1.2Z" transform="translate(-4.12 -1.82)"/><path class="c" d="M132.21,16.58h2.84a2.12,2.12,0,0,1,1.39.39,1.36,1.36,0,0,1,.46,1.1,1.41,1.41,0,0,1-.5,1.15,2.38,2.38,0,0,1-1.54.42h-0.94v1.8h-1.72V16.58Zm1.72,2.07h0.42A1.19,1.19,0,0,0,135,18.5a0.46,0.46,0,0,0,.2-0.39,0.51,0.51,0,0,0-.17-0.39,1,1,0,0,0-.65-0.16h-0.49v1.08Z" transform="translate(-4.12 -1.82)"/><path class="c" d="M137.7,17.92h1.64v1.35H137.7V17.92Zm0,2.17h1.64v1.35H137.7V20.09Z" transform="translate(-4.12 -1.82)"/><path class="c" d="M142.77,20.35l1.53-.17a0.68,0.68,0,0,0,.2.4,0.54,0.54,0,0,0,.35.12,0.65,0.65,0,0,0,.58-0.33,2.74,2.74,0,0,0,.23-1,1.9,1.9,0,0,1-.57.36,2,2,0,0,1-1.93-.35,1.52,1.52,0,0,1-.51-1.17,1.57,1.57,0,0,1,.26-0.88,1.63,1.63,0,0,1,.72-0.6,2.83,2.83,0,0,1,1.15-.2,3,3,0,0,1,1.33.25,1.85,1.85,0,0,1,.8.8,3,3,0,0,1,.3,1.44,2.59,2.59,0,0,1-.63,1.93,2.4,2.4,0,0,1-1.75.61,3.23,3.23,0,0,1-1-.13,1.63,1.63,0,0,1-.63-0.39A1.74,1.74,0,0,1,142.77,20.35Zm2.83-2.17a0.83,0.83,0,0,0-.23-0.62,0.76,0.76,0,0,0-.55-0.22,0.69,0.69,0,0,0-.51.2,0.83,0.83,0,0,0-.2.61,0.86,0.86,0,0,0,.21.62,0.7,0.7,0,0,0,.52.22,0.74,0.74,0,0,0,.54-0.21A0.79,0.79,0,0,0,145.6,18.18Z" transform="translate(-4.12 -1.82)"/><path class="c" d="M148.78,18.83a1.44,1.44,0,0,1-.53-0.38,1,1,0,0,1-.23-0.66,1.14,1.14,0,0,1,.65-1,2.65,2.65,0,0,1,1.35-.3,2.88,2.88,0,0,1,1.64.37,1.11,1.11,0,0,1,.53.94,1,1,0,0,1-.21.61,1.66,1.66,0,0,1-.5.41,1.51,1.51,0,0,1,.67.5,1.17,1.17,0,0,1,.22.69,1.3,1.3,0,0,1-.19.68,1.44,1.44,0,0,1-.47.49,2.06,2.06,0,0,1-.69.25,4.61,4.61,0,0,1-.88.08,3.82,3.82,0,0,1-1.34-.18,1.48,1.48,0,0,1-.71-0.54,1.38,1.38,0,0,1-.24-0.79,1.16,1.16,0,0,1,.23-0.72A1.44,1.44,0,0,1,148.78,18.83ZM149.39,20a0.68,0.68,0,0,0,.22.53,0.73,0.73,0,0,0,.51.2,0.7,0.7,0,0,0,.49-0.21,0.74,0.74,0,0,0,0-1.05,0.72,0.72,0,0,0-.51-0.21,0.71,0.71,0,0,0-.5.2A0.7,0.7,0,0,0,149.39,20Zm0.08-2.09a0.51,0.51,0,0,0,.18.41,0.71,0.71,0,0,0,.48.15,0.63,0.63,0,0,0,.43-0.15,0.51,0.51,0,0,0,.17-0.39,0.52,0.52,0,0,0-.18-0.41,0.74,0.74,0,0,0-.91,0A0.5,0.5,0,0,0,149.47,17.87Z" transform="translate(-4.12 -1.82)"/><path class="c" d="M153.16,20.09h1.64v1.35h-1.64V20.09Z" transform="translate(-4.12 -1.82)"/><path class="c" d="M160,17.67l-1.53.17a0.7,0.7,0,0,0-.2-0.4,0.54,0.54,0,0,0-.35-0.12,0.65,0.65,0,0,0-.58.33,2.69,2.69,0,0,0-.22,1,2,2,0,0,1,.57-0.36,1.94,1.94,0,0,1,1.92.35,1.52,1.52,0,0,1,.51,1.18,1.58,1.58,0,0,1-.26.88,1.62,1.62,0,0,1-.72.6,2.84,2.84,0,0,1-1.15.2,3,3,0,0,1-1.33-.25,1.84,1.84,0,0,1-.8-0.79,3,3,0,0,1-.3-1.45,2.58,2.58,0,0,1,.63-1.93,2.4,2.4,0,0,1,1.75-.61,3.24,3.24,0,0,1,1,.13,1.62,1.62,0,0,1,.64.39A1.7,1.7,0,0,1,160,17.67Zm-2.83,2.17a0.83,0.83,0,0,0,.23.62,0.76,0.76,0,0,0,.55.22,0.69,0.69,0,0,0,.51-0.2,0.82,0.82,0,0,0,.2-0.6,0.86,0.86,0,0,0-.21-0.63A0.7,0.7,0,0,0,158,19a0.74,0.74,0,0,0-.54.21A0.79,0.79,0,0,0,157.21,19.84Z" transform="translate(-4.12 -1.82)"/><path class="c" d="M162.23,18l-1.45-.23a1.61,1.61,0,0,1,.7-0.94,2.74,2.74,0,0,1,1.46-.33,2.68,2.68,0,0,1,1.57.36,1.07,1.07,0,0,1,.48.89,0.91,0.91,0,0,1-.2.57,1.62,1.62,0,0,1-.59.45,1.9,1.9,0,0,1,.49.16,1.13,1.13,0,0,1,.43.39,1.07,1.07,0,0,1,.15.58,1.47,1.47,0,0,1-.25.81,1.62,1.62,0,0,1-.73.6,3.11,3.11,0,0,1-1.25.21,3.63,3.63,0,0,1-1.19-.16,1.78,1.78,0,0,1-.72-0.46,2,2,0,0,1-.43-0.75l1.54-.18a1,1,0,0,0,.28.57,0.73,0.73,0,0,0,.48.16,0.69,0.69,0,0,0,.72-0.73,0.69,0.69,0,0,0-.2-0.52,0.76,0.76,0,0,0-.54-0.19,2.15,2.15,0,0,0-.5.08l0.08-1,0.2,0a0.76,0.76,0,0,0,.5-0.17,0.51,0.51,0,0,0,.2-0.4,0.45,0.45,0,0,0-.15-0.35,0.61,0.61,0,0,0-.42-0.13,0.66,0.66,0,0,0-.44.14A0.83,0.83,0,0,0,162.23,18Z" transform="translate(-4.12 -1.82)"/><path class="c" d="M166,17.77a1.31,1.31,0,0,1,.17-0.64,1.1,1.1,0,0,1,.51-0.47,1.89,1.89,0,0,1,.82-0.16,1.61,1.61,0,0,1,1.09.35,1.28,1.28,0,0,1,0,1.86,1.61,1.61,0,0,1-1.09.35,1.89,1.89,0,0,1-.82-0.16,1.1,1.1,0,0,1-.51-0.47A1.32,1.32,0,0,1,166,17.77Zm1.06,0a1,1,0,0,0,.15.6,0.35,0.35,0,0,0,.29.12,0.34,0.34,0,0,0,.28-0.12,1,1,0,0,0,.15-0.6,1,1,0,0,0-.15-0.6,0.34,0.34,0,0,0-.28-0.12,0.35,0.35,0,0,0-.29.12A1,1,0,0,0,167,17.78Zm3.64-1.28h0.8l-3.2,5.2h-0.79Zm-0.71,3.91a1.33,1.33,0,0,1,.17-0.65,1.12,1.12,0,0,1,.51-0.47,1.87,1.87,0,0,1,.81-0.17,1.61,1.61,0,0,1,1.1.35,1.28,1.28,0,0,1,0,1.86,1.62,1.62,0,0,1-1.1.35,1.87,1.87,0,0,1-.81-0.17,1.11,1.11,0,0,1-.51-0.47A1.33,1.33,0,0,1,169.94,20.4Zm1.06,0a1,1,0,0,0,.15.6,0.34,0.34,0,0,0,.28.12,0.35,0.35,0,0,0,.29-0.12,1,1,0,0,0,.15-0.6,1,1,0,0,0-.15-0.6,0.35,0.35,0,0,0-.29-0.12,0.33,0.33,0,0,0-.28.12A1,1,0,0,0,171,20.41Z" transform="translate(-4.12 -1.82)"/><rect x="108.83" y="18.85" width="1.64" height="1.35"/><polyline class="c" points="110.22 18.27 110.22 19.63 108.58 19.63 108.58 18.27"/><path d="M171.83,5.1a2.4,2.4,0,0,0-1.4,1,3.15,3.15,0,0,1-1.26,1,0.86,0.86,0,0,1-.4.05,0.82,0.82,0,0,1-.4-0.06,3,3,0,0,1-1.2-1,2.91,2.91,0,0,0-1.29-1,1.46,1.46,0,0,0-.71,0,2.6,2.6,0,0,0-1.39,1,2.25,2.25,0,0,1-1.6,1.09,1.31,1.31,0,0,1-.83-0.31,4.28,4.28,0,0,1-.72-0.71l-0.36-.41a2.22,2.22,0,0,0-1-.65,1.63,1.63,0,0,0-.64,0,2.75,2.75,0,0,0-1.11.83l-0.12.15s0.33,0.74.36,0.79l0.08-.08a4.15,4.15,0,0,1,.55-0.53,0.94,0.94,0,0,1,1.2,0,3.38,3.38,0,0,1,.71.69,4.5,4.5,0,0,0,.87.84,1.59,1.59,0,0,0,1.56.28A3.53,3.53,0,0,0,164.11,7a2.43,2.43,0,0,1,1-.8,0.84,0.84,0,0,1,.31-0.06,1.08,1.08,0,0,1,.75.24,3.44,3.44,0,0,1,.7.68,4.29,4.29,0,0,0,.93.87,1.69,1.69,0,0,0,2.07-.06,5.32,5.32,0,0,0,1-1c0.76-.9,1.22-1,1.86-0.37L173,6.77l0.14,0.16a6,6,0,0,0,.36-0.73l0-.05L173.35,6a4.21,4.21,0,0,0-.58-0.56A1.26,1.26,0,0,0,171.83,5.1Z" transform="translate(-4.12 -1.82)"/><path d="M171.69,7.94a2.84,2.84,0,0,0-1.28,1A2.56,2.56,0,0,1,168.93,10a1.39,1.39,0,0,1-1-.32,4.49,4.49,0,0,1-.8-0.8c-0.91-1.07-1.76-1.27-2.65-.61a4.4,4.4,0,0,0-.7.69,2.89,2.89,0,0,1-1.29,1,1.22,1.22,0,0,1-.82-0.1,3.66,3.66,0,0,1-1.06-1,2.82,2.82,0,0,0-1.27-1,1.48,1.48,0,0,0-.7,0,2.57,2.57,0,0,0-1.06.77l-0.16.19a1.1,1.1,0,0,0,.16.42c0.1,0.21.18,0.39,0.19,0.39l0.11-.11a3.1,3.1,0,0,1,.51-0.48,0.93,0.93,0,0,1,1.16-.06,3.5,3.5,0,0,1,.77.75c1,1.22,1.9,1.49,2.85.87a4.64,4.64,0,0,0,1-1,1.9,1.9,0,0,1,1.25-.83,1.69,1.69,0,0,1,1.35.79,5,5,0,0,0,.93.91,2.08,2.08,0,0,0,.62.33,1.93,1.93,0,0,0,2-.68c0.16-.16.28-0.29,0.54-0.6a2.71,2.71,0,0,1,.8-0.71A0.5,0.5,0,0,1,172,8.93a0.51,0.51,0,0,1,.31.05,2.48,2.48,0,0,1,.73.62,0.59,0.59,0,0,0,.15.14s0.09-.18.19-0.39L173.49,9l0-.05a4.43,4.43,0,0,0-.73-0.72A1.21,1.21,0,0,0,171.69,7.94Z" transform="translate(-4.12 -1.82)"/><path d="M171.75,10.74a1.67,1.67,0,0,0-.59.28,4.75,4.75,0,0,0-.78.79,4,4,0,0,1-.75.73,1.3,1.3,0,0,1-.88.32,0.87,0.87,0,0,1-.36,0,3,3,0,0,1-1.3-1.06c-0.92-1.08-1.75-1.29-2.64-.65a4.54,4.54,0,0,0-.72.71,2.16,2.16,0,0,1-1.64,1.05,2.34,2.34,0,0,1-1.51-1.06c-0.14-.16-0.32-0.36-0.41-0.45a1.49,1.49,0,0,0-1.82-.46,3.32,3.32,0,0,0-.89.74,0.37,0.37,0,0,0-.11.17c0,0.05.35,0.77,0.36,0.77l0.1-.1a2.12,2.12,0,0,1,.91-0.69,1,1,0,0,1,.56,0,2.77,2.77,0,0,1,.92.8,5,5,0,0,0,.86.85,1.72,1.72,0,0,0,1.07.4,2,2,0,0,0,1.33-.6,6,6,0,0,0,.61-0.64,3.4,3.4,0,0,1,.6-0.59,1.17,1.17,0,0,1,.74-0.28,1.83,1.83,0,0,1,1.36.88,3.47,3.47,0,0,0,1.43,1.14,1.7,1.7,0,0,0,1.67-.33,5.24,5.24,0,0,0,.92-0.91,1.56,1.56,0,0,1,1.2-.8,1.54,1.54,0,0,1,.91.63l0.2,0.21s0.09-.18.19-0.39c0.18-.38.18-0.39,0.15-0.42-0.2-.24-0.28-0.32-0.42-0.46a2.19,2.19,0,0,0-.8-0.53A1.43,1.43,0,0,0,171.75,10.74Z" transform="translate(-4.12 -1.82)"/><path class="d" d="M171.83,4.1a2.4,2.4,0,0,0-1.4,1,3.15,3.15,0,0,1-1.26,1,0.86,0.86,0,0,1-.4.05,0.82,0.82,0,0,1-.4-0.06,3,3,0,0,1-1.2-1,2.91,2.91,0,0,0-1.29-1,1.46,1.46,0,0,0-.71,0,2.6,2.6,0,0,0-1.39,1,2.25,2.25,0,0,1-1.6,1.09,1.31,1.31,0,0,1-.83-0.31,4.28,4.28,0,0,1-.72-0.71l-0.36-.41a2.22,2.22,0,0,0-1-.65,1.63,1.63,0,0,0-.64,0,2.75,2.75,0,0,0-1.11.83l-0.12.15s0.33,0.74.36,0.79l0.08-.08a4.15,4.15,0,0,1,.55-0.53,0.94,0.94,0,0,1,1.2,0,3.38,3.38,0,0,1,.71.69,4.5,4.5,0,0,0,.87.84,1.59,1.59,0,0,0,1.56.28A3.53,3.53,0,0,0,164.12,6a2.43,2.43,0,0,1,1-.8,0.84,0.84,0,0,1,.31-0.06,1.08,1.08,0,0,1,.75.24,3.44,3.44,0,0,1,.7.68,4.29,4.29,0,0,0,.93.87,1.69,1.69,0,0,0,2.07-.06,5.32,5.32,0,0,0,1-1c0.76-.9,1.22-1,1.86-0.37L173,5.77l0.14,0.16a6,6,0,0,0,.36-0.73l0-.05L173.36,5a4.21,4.21,0,0,0-.58-0.56A1.26,1.26,0,0,0,171.83,4.1Z" transform="translate(-4.12 -1.82)"/><path class="d" d="M171.7,6.94a2.84,2.84,0,0,0-1.28,1A2.56,2.56,0,0,1,168.93,9a1.39,1.39,0,0,1-1-.32,4.49,4.49,0,0,1-.8-0.8c-0.91-1.07-1.76-1.27-2.65-.61a4.4,4.4,0,0,0-.7.69,2.89,2.89,0,0,1-1.29,1,1.22,1.22,0,0,1-.82-0.1,3.66,3.66,0,0,1-1.06-1,2.82,2.82,0,0,0-1.27-1,1.48,1.48,0,0,0-.7,0,2.57,2.57,0,0,0-1.06.77l-0.16.19a1.1,1.1,0,0,0,.16.42c0.1,0.21.18,0.39,0.19,0.39l0.11-.11a3.1,3.1,0,0,1,.51-0.48,0.93,0.93,0,0,1,1.16-.06,3.5,3.5,0,0,1,.77.75c1,1.22,1.9,1.49,2.85.87a4.64,4.64,0,0,0,1-1,1.9,1.9,0,0,1,1.25-.83,1.69,1.69,0,0,1,1.35.79,5,5,0,0,0,.93.91,2.08,2.08,0,0,0,.62.33,1.93,1.93,0,0,0,2-.68c0.16-.16.28-0.29,0.54-0.6a2.71,2.71,0,0,1,.8-0.71A0.5,0.5,0,0,1,172,7.93a0.51,0.51,0,0,1,.31.05,2.48,2.48,0,0,1,.73.62,0.59,0.59,0,0,0,.15.14s0.09-.18.19-0.39L173.5,8l0-.05a4.43,4.43,0,0,0-.73-0.72A1.21,1.21,0,0,0,171.7,6.94Z" transform="translate(-4.12 -1.82)"/><path class="d" d="M171.76,9.74a1.67,1.67,0,0,0-.59.28,4.75,4.75,0,0,0-.78.79,4,4,0,0,1-.75.73,1.3,1.3,0,0,1-.88.32,0.87,0.87,0,0,1-.36,0,3,3,0,0,1-1.3-1.06c-0.92-1.08-1.75-1.29-2.64-.65a4.54,4.54,0,0,0-.72.71,2.16,2.16,0,0,1-1.64,1.05,2.34,2.34,0,0,1-1.51-1.06c-0.14-.16-0.32-0.36-0.41-0.45a1.49,1.49,0,0,0-1.82-.46,3.32,3.32,0,0,0-.89.74,0.37,0.37,0,0,0-.11.17c0,0.05.35,0.77,0.36,0.77l0.1-.1a2.12,2.12,0,0,1,.91-0.69,1,1,0,0,1,.56,0,2.77,2.77,0,0,1,.92.8,5,5,0,0,0,.86.85,1.72,1.72,0,0,0,1.07.4,2,2,0,0,0,1.33-.6,6,6,0,0,0,.61-0.64,3.4,3.4,0,0,1,.6-0.59,1.17,1.17,0,0,1,.74-0.28,1.83,1.83,0,0,1,1.36.88,3.47,3.47,0,0,0,1.43,1.14,1.7,1.7,0,0,0,1.67-.33,5.24,5.24,0,0,0,.92-0.91,1.56,1.56,0,0,1,1.2-.8,1.54,1.54,0,0,1,.91.63l0.2,0.21s0.09-.18.19-0.39c0.18-.38.18-0.39,0.15-0.42-0.2-.24-0.28-0.32-0.42-0.46a2.19,2.19,0,0,0-.8-0.53A1.43,1.43,0,0,0,171.76,9.74Z" transform="translate(-4.12 -1.82)"/></svg>